<?xml version="1.0" encoding="UTF-8"?>
<svg version="1.1" xmlns="http://www.w3.org/2000/svg" width="75" height="47">
<path d="M0 0 C3.26643594 2.3241948 4.76028538 3.63202859 6.25 7.3125 C6.4375 10.625 6.4375 10.625 6.25 13.3125 C4.6 13.6425 2.95 13.9725 1.25 14.3125 C0.95867188 13.81878906 0.66734375 13.32507812 0.3671875 12.81640625 C-2.37381278 8.49380075 -2.37381278 8.49380075 -6.875 6.25 C-9.9519983 6.05970386 -9.9519983 6.05970386 -12.75 8.3125 C-12.75 9.6325 -12.75 10.9525 -12.75 12.3125 C-11.79738281 12.61542969 -10.84476563 12.91835938 -9.86328125 13.23046875 C-8.59609351 13.65286466 -7.32918066 14.07608589 -6.0625 14.5 C-4.82113281 14.90605469 -3.57976563 15.31210937 -2.30078125 15.73046875 C1.47631445 17.41333317 3.5356807 19.23560001 6.25 22.3125 C6.58 22.6425 6.91 22.9725 7.25 23.3125 C7.69171515 26.36664473 7.72209366 29.26204866 7.25 32.3125 C4.72031526 35.59425318 3.17268669 37.00493777 -0.75 38.3125 C-12.15598235 39.46461943 -12.15598235 39.46461943 -16.375 36.125 C-18.64662137 33.43492206 -19.98125736 31.72913397 -20.75 28.3125 C-20.375 25.5 -20.375 25.5 -19.75 23.3125 C-17.5625 22.875 -17.5625 22.875 -14.75 23.3125 C-13.65625 24.87109375 -13.65625 24.87109375 -12.5625 26.8125 C-11.42774078 28.80396749 -11.42774078 28.80396749 -9.75 30.3125 C-6.34435702 30.93599464 -3.17389498 30.73134541 0.25 30.3125 C-0.24547543 27.85618999 -0.24547543 27.85618999 -1.75 25.3125 C-4.75498968 23.74990537 -7.65229256 22.68249078 -10.84765625 21.60546875 C-18.45483525 18.94651086 -18.45483525 18.94651086 -20.75 15.3125 C-21.51644125 11.48759321 -21.61465865 7.98866205 -19.796875 4.46484375 C-14.78121716 -1.99519657 -7.32611942 -3.81761919 0 0 Z " fill="#41184E" transform="translate(24.75,4.6875)"/>
<path d="M0 0 C0.78576416 -0.01305176 1.57152832 -0.02610352 2.38110352 -0.03955078 C6.26291907 -0.0454534 8.13340161 -0.01523226 11.4375 2.1875 C11.1075 3.8375 10.7775 5.4875 10.4375 7.1875 C5.8175 7.5175 1.1975 7.8475 -3.5625 8.1875 C-3.53929688 9.88519531 -3.51609375 11.58289063 -3.4921875 13.33203125 C-3.47343094 15.55468311 -3.45523062 17.77733972 -3.4375 20 C-3.42074219 21.11955078 -3.40398438 22.23910156 -3.38671875 23.39257812 C-3.38027344 24.46572266 -3.37382813 25.53886719 -3.3671875 26.64453125 C-3.35671387 27.63428955 -3.34624023 28.62404785 -3.33544922 29.64379883 C-3.5625 32.1875 -3.5625 32.1875 -5.5625 35.1875 C-10.4375 34.3125 -10.4375 34.3125 -11.5625 33.1875 C-11.72036308 31.33575294 -11.81357356 29.4784089 -11.87890625 27.62109375 C-11.92080078 26.49638672 -11.96269531 25.37167969 -12.00585938 24.21289062 C-12.04517578 23.02888672 -12.08449219 21.84488281 -12.125 20.625 C-12.18977539 18.84319336 -12.18977539 18.84319336 -12.25585938 17.02539062 C-12.36233453 14.07957803 -12.46295681 11.13355498 -12.5625 8.1875 C-16.1925 8.1875 -19.8225 8.1875 -23.5625 8.1875 C-23.8925 6.5375 -24.2225 4.8875 -24.5625 3.1875 C-17.86862461 -1.27508359 -7.8691696 0.07735767 0 0 Z " fill="#421E4F" transform="translate(58.5625,4.8125)"/>
<path d="M0 0 C0.99 0.33 1.98 0.66 3 1 C3 1.66 3 2.32 3 3 C3.66 3.66 4.32 4.32 5 5 C5.24291992 7.49023438 5.24291992 7.49023438 5.23046875 10.59375 C5.22853516 11.70621094 5.22660156 12.81867187 5.22460938 13.96484375 C5.21236328 15.13144531 5.20011719 16.29804688 5.1875 17.5 C5.18685547 18.66660156 5.18621094 19.83320313 5.18554688 21.03515625 C5.14026365 29.7194727 5.14026365 29.7194727 4 32 C2.68 31.67 1.36 31.34 0 31 C0 20.77 0 10.54 0 0 Z " fill="#4A1B5D" transform="translate(48,8)"/>
<path d="M0 0 C3.0494016 3.6211644 3.3251235 6.33989644 3 11 C1.35 11.33 -0.3 11.66 -2 12 C-2.33773438 11.50628906 -2.67546875 11.01257812 -3.0234375 10.50390625 C-3.46945313 9.86324219 -3.91546875 9.22257812 -4.375 8.5625 C-4.81585938 7.92441406 -5.25671875 7.28632813 -5.7109375 6.62890625 C-6.92160853 4.86259072 -6.92160853 4.86259072 -9 4 C-9 3.34 -9 2.68 -9 2 C-10.65 1.67 -12.3 1.34 -14 1 C-13.67 -0.32 -13.34 -1.64 -13 -3 C-7.887791 -4.91707838 -4.25003804 -2.90695242 0 0 Z " fill="#471A58" transform="translate(28,7)"/>
<path d="M0 0 C3.05448544 0.17967561 4.62545344 0.61085596 7.1875 2.1875 C7.8475 1.5275 8.5075 0.8675 9.1875 0.1875 C10.1775 0.1875 11.1675 0.1875 12.1875 0.1875 C11.1875 3.1875 11.1875 3.1875 9.1875 4.375 C5.14945446 5.46863733 1.34434292 5.35051345 -2.8125 5.1875 C-3.375 3.25 -3.375 3.25 -3.8125 1.1875 C-2.8125 0.1875 -2.8125 0.1875 0 0 Z " fill="#4A1B5C" transform="translate(14.8125,36.8125)"/>
<path d="M0 0 C5.75 0.75 5.75 0.75 8 3 C8.66 2.67 9.32 2.34 10 2 C11.231394 5.69418201 10.64432764 8.2056261 10 12 C8.68 11.67 7.36 11.34 6 11 C6.33 9.68 6.66 8.36 7 7 C6.360625 6.731875 5.72125 6.46375 5.0625 6.1875 C3 5 3 5 2 2 C1.34 2 0.68 2 0 2 C0 1.34 0 0.68 0 0 Z " fill="#491A5D" transform="translate(20,23)"/>
<path d="M0 0 C0.66 0 1.32 0 2 0 C4.84450614 3.71973879 5.3227506 6.37390802 5 11 C3.35 11.33 1.7 11.66 0 12 C-2.475 8.04 -2.475 8.04 -5 4 C-2 4 -2 4 0.6875 6.5 C1.450625 7.325 2.21375 8.15 3 9 C2.67 7.02 2.34 5.04 2 3 C1.34 3 0.68 3 0 3 C0 2.01 0 1.02 0 0 Z " fill="#3F1E4C" transform="translate(26,7)"/>
<path d="M0 0 C2.625 0.375 2.625 0.375 5 1 C5 2.65 5 4.3 5 6 C2.625 7.0625 2.625 7.0625 0 8 C-0.66 7.67 -1.32 7.34 -2 7 C-2.125 4.625 -2.125 4.625 -2 2 C-1.34 1.34 -0.68 0.68 0 0 Z " fill="#371C44" transform="translate(67,34)"/>
<path d="M0 0 C3.63 0 7.26 0 11 0 C10.67 1.32 10.34 2.64 10 4 C7.03 3.67 4.06 3.34 1 3 C0.67 2.01 0.34 1.02 0 0 Z " fill="#4B195D" transform="translate(56,7)"/>
<path d="M0 0 C0 0.33 0 0.66 0 1 C-1.65 1.33 -3.3 1.66 -5 2 C-5 2.99 -5 3.98 -5 5 C-3.68 5.66 -2.36 6.32 -1 7 C-3.31 7.66 -5.62 8.32 -8 9 C-8 7.02 -8 5.04 -8 3 C-8.99 3.33 -9.98 3.66 -11 4 C-11 3.34 -11 2.68 -11 2 C-7.17010894 0.19769832 -4.21878192 -0.19622241 0 0 Z " fill="#38163F" transform="translate(20,3)"/>
<path d="M0 0 C1.2065625 0.0309375 1.2065625 0.0309375 2.4375 0.0625 C3.0975 1.7125 3.7575 3.3625 4.4375 5.0625 C1.4375 5.0625 1.4375 5.0625 -0.25 3.5625 C-0.683125 3.0675 -1.11625 2.5725 -1.5625 2.0625 C-1.8925 3.0525 -2.2225 4.0425 -2.5625 5.0625 C-3.125 3.125 -3.125 3.125 -3.5625 1.0625 C-2.5625 0.0625 -2.5625 0.0625 0 0 Z " fill="#3B1A47" transform="translate(7.5625,27.9375)"/>
<path d="M0 0 C0.99 0.33 1.98 0.66 3 1 C0.41451372 3.58548628 -1.29538385 3.97641847 -4.91796875 4.09765625 C-6.53638672 4.08025391 -6.53638672 4.08025391 -8.1875 4.0625 C-9.81751953 4.04896484 -9.81751953 4.04896484 -11.48046875 4.03515625 C-12.31191406 4.02355469 -13.14335937 4.01195312 -14 4 C-14 3.67 -14 3.34 -14 3 C-13.15695312 2.86722656 -12.31390625 2.73445313 -11.4453125 2.59765625 C-10.34960938 2.42105469 -9.25390625 2.24445312 -8.125 2.0625 C-6.48917969 1.80146484 -6.48917969 1.80146484 -4.8203125 1.53515625 C-2.06178454 1.14448841 -2.06178454 1.14448841 0 0 Z " fill="#351A44" transform="translate(26,39)"/>
<path d="M0 0 C1.67542976 0.28604898 3.34385343 0.61781233 5 1 C4.67 2.65 4.34 4.3 4 6 C1 5 1 5 -0.1875 2.9375 C-0.5896875 1.9784375 -0.5896875 1.9784375 -1 1 C-0.67 0.67 -0.34 0.34 0 0 Z " fill="#491A5D" transform="translate(11,19)"/>
<path d="M0 0 C1.32 0 2.64 0 4 0 C3.67 1.65 3.34 3.3 3 5 C2.01 4.67 1.02 4.34 0 4 C0 2.68 0 1.36 0 0 Z " fill="#431C51" transform="translate(67,34)"/>
<path d="" fill="#FFFFFF" transform="translate(0,0)"/>
</svg>
