<?xml version="1.0" encoding="UTF-8"?>
<svg version="1.1" xmlns="http://www.w3.org/2000/svg" width="107" height="63">
<path d="M0 0 C35.31 0 70.62 0 107 0 C107 20.79 107 41.58 107 63 C71.69 63 36.38 63 0 63 C0 42.21 0 21.42 0 0 Z " fill="#FCFBFC" transform="translate(0,0)"/>
<path d="M0 0 C3.41184571 1.60483113 5.24528825 3.94996626 7.4375 7 C8.16995593 9.60428776 7.71551063 11.42416173 7 14 C4.6875 13.8125 4.6875 13.8125 2 13 C0.3125 10.5 0.3125 10.5 -1 8 C-3.98997825 6.50501087 -6.70042775 6.88422554 -10 7 C-10.99 7.33 -11.98 7.66 -13 8 C-12.47506216 10.98019046 -12.47506216 10.98019046 -11 14 C-8.11242152 15.44810781 -8.11242152 15.44810781 -4.6875 16.125 C1.61469581 17.63407767 5.35240485 19.52860728 9 25 C9.65848355 29.23310854 9.22376466 30.67678439 6.75 34.25 C2.96496793 38.03503207 0.40940306 39.28778396 -4.9375 39.3125 C-9.10338723 39.20835282 -11.81287092 38.89739007 -15 36 C-17.65423853 31.881354 -18.3477436 28.86841035 -18 24 C-15.75 24.125 -15.75 24.125 -13 25 C-12.195625 26.5159375 -12.195625 26.5159375 -11.375 28.0625 C-9.33750211 31.26186373 -9.33750211 31.26186373 -6.3046875 31.39453125 C-3.51495857 31.37669411 -0.77721832 31.2585686 2 31 C1.43091973 28.02365556 1.43091973 28.02365556 0 25 C-2.62253795 23.59306724 -2.62253795 23.59306724 -5.75 22.9375 C-11.0536759 21.41579707 -14.1619303 19.94180132 -18 16 C-19.76934364 12.46131272 -18.89188738 8.74851217 -18 5 C-14.11616932 -1.79670369 -6.97838108 -1.10461811 0 0 Z " fill="#5B2F6A" transform="translate(41,14)"/>
<path d="M0 0 C1.73443359 0.00676758 1.73443359 0.00676758 3.50390625 0.01367188 C6.33599225 0.02537471 9.16796811 0.04177004 12 0.0625 C12.625 1.9375 12.625 1.9375 13 4.0625 C11 6.0625 11 6.0625 7.7421875 6.2578125 C4.16145833 6.19270833 0.58072917 6.12760417 -3 6.0625 C-3 14.9725 -3 23.8825 -3 33.0625 C-4.65 32.7325 -6.3 32.4025 -8 32.0625 C-8.33 23.8125 -8.66 15.5625 -9 7.0625 C-12.96 7.0625 -16.92 7.0625 -21 7.0625 C-21.33 5.4125 -21.66 3.7625 -22 2.0625 C-17.93308041 -2.00441959 -5.28078922 -0.03931859 0 0 Z " fill="#572967" transform="translate(74,15.9375)"/>
<path d="M0 0 C2.625 0.375 2.625 0.375 5 1 C4.67 2.65 4.34 4.3 4 6 C2.35 6.33 0.7 6.66 -1 7 C-1.625 4.625 -1.625 4.625 -2 2 C-1.34 1.34 -0.68 0.68 0 0 Z " fill="#6A4178" transform="translate(85,44)"/>
</svg>
